<?xml version="1.0" encoding="UTF-8"?>
<svg width="14px" height="14px" viewBox="0 0 14 14" version="1.1" xmlns="http://www.w3.org/2000/svg" xmlns:xlink="http://www.w3.org/1999/xlink">
    <!-- Generator: Sketch 53 (72520) - https://sketchapp.com -->
    <title>↳Color</title>
    <desc>Created with Sketch.</desc>
    <defs>
        <path d="M1.93333333,3.4 L1.93333333,11.9333333 C1.93333333,12.0069713 1.9930287,12.0666667 2.06666667,12.0666667 L11.9333333,12.0666667 C12.0069713,12.0666667 12.0666667,12.0069713 12.0666667,11.9333333 L12.0666667,3.4 C12.0666667,3.32636203 12.0069713,3.26666667 11.9333333,3.26666667 L2.06666667,3.26666667 C1.9930287,3.26666667 1.93333333,3.32636203 1.93333333,3.4 Z M11.6666667,1.66666667 L13,1.66666667 C13.3681898,1.66666667 13.6666667,1.9651435 13.6666667,2.33333333 L13.6666667,13 C13.6666667,13.3681898 13.3681898,13.6666667 13,13.6666667 L1,13.6666667 C0.631810167,13.6666667 0.333333333,13.3681898 0.333333333,13 L0.333333333,2.33333333 C0.333333333,1.9651435 0.631810167,1.66666667 1,1.66666667 L2.33333333,1.66666667 L2.33333333,0.666666667 C2.33333333,0.48257175 2.48257175,0.333333333 2.66666667,0.333333333 L4,0.333333333 C4.18409492,0.333333333 4.33333333,0.48257175 4.33333333,0.666666667 L4.33333333,1.66666667 L9.66666667,1.66666667 L9.66666667,0.666666667 C9.66666667,0.48257175 9.81590508,0.333333333 10,0.333333333 L11.3333333,0.333333333 C11.5174282,0.333333333 11.6666667,0.48257175 11.6666667,0.666666667 L11.6666667,1.66666667 Z M3.8,5 C3.72636203,5 3.66666667,5.05969537 3.66666667,5.13333333 L3.66666667,6.2 C3.66666667,6.27363797 3.72636203,6.33333333 3.8,6.33333333 L4.86666667,6.33333333 C4.94030463,6.33333333 5,6.27363797 5,6.2 L5,5.13333333 C5,5.05969537 4.94030463,5 4.86666667,5 L3.8,5 Z M6.46666667,5 C6.3930287,5 6.33333333,5.05969537 6.33333333,5.13333333 L6.33333333,6.2 C6.33333333,6.27363797 6.3930287,6.33333333 6.46666667,6.33333333 L7.53333333,6.33333333 C7.6069713,6.33333333 7.66666667,6.27363797 7.66666667,6.2 L7.66666667,5.13333333 C7.66666667,5.05969537 7.6069713,5 7.53333333,5 L6.46666667,5 Z M9.13333333,5 C9.05969537,5 9,5.05969537 9,5.13333333 L9,6.2 C9,6.27363797 9.05969537,6.33333333 9.13333333,6.33333333 L10.2,6.33333333 C10.273638,6.33333333 10.3333333,6.27363797 10.3333333,6.2 L10.3333333,5.13333333 C10.3333333,5.05969537 10.273638,5 10.2,5 L9.13333333,5 Z M3.8,7.66666667 C3.72636203,7.66666667 3.66666667,7.72636203 3.66666667,7.8 L3.66666667,8.86666667 C3.66666667,8.94030463 3.72636203,9 3.8,9 L4.86666667,9 C4.94030463,9 5,8.94030463 5,8.86666667 L5,7.8 C5,7.72636203 4.94030463,7.66666667 4.86666667,7.66666667 L3.8,7.66666667 Z M6.46666667,7.66666667 C6.3930287,7.66666667 6.33333333,7.72636203 6.33333333,7.8 L6.33333333,8.86666667 C6.33333333,8.94030463 6.3930287,9 6.46666667,9 L7.53333333,9 C7.6069713,9 7.66666667,8.94030463 7.66666667,8.86666667 L7.66666667,7.8 C7.66666667,7.72636203 7.6069713,7.66666667 7.53333333,7.66666667 L6.46666667,7.66666667 Z M9.13333333,7.66666667 C9.05969537,7.66666667 9,7.72636203 9,7.8 L9,8.86666667 C9,8.94030463 9.05969537,9 9.13333333,9 L10.2,9 C10.273638,9 10.3333333,8.94030463 10.3333333,8.86666667 L10.3333333,7.8 C10.3333333,7.72636203 10.273638,7.66666667 10.2,7.66666667 L9.13333333,7.66666667 Z" id="path-1"></path>
    </defs>
    <g id="mockups" stroke="none" stroke-width="1" fill="none" fill-rule="evenodd">
        <g id="Le-mie-richieste" transform="translate(-13.000000, -163.000000)">
            <g id="Group-2" transform="translate(12.000000, 130.000000)">
                <g id="Icon-/-Time-/-Calendar" transform="translate(1.000000, 33.000000)">
                    <mask id="mask-2" fill="white">
                        <use xlink:href="#path-1"></use>
                    </mask>
                    <!-- <use id="↳Color" fill="#378DD2" xlink:href="#path-1"></use> -->
                    <use id="↳Color" fill="#50D2C2" xlink:href="#path-1"></use>
                </g>
            </g>
        </g>
    </g>
</svg>