<?xml version="1.0" encoding="UTF-8"?>
<svg width="18px" height="20px" viewBox="0 0 18 20" version="1.1" xmlns="http://www.w3.org/2000/svg" xmlns:xlink="http://www.w3.org/1999/xlink">
    <!-- Generator: Sketch 52.6 (67491) - http://www.bohemiancoding.com/sketch -->
    <title>Combined Shape</title>
    <desc>Created with Sketch.</desc>
    <g id="Symbols" stroke="none" stroke-width="1" fill="none" fill-rule="evenodd">
        <g id="footer-prestazioni" transform="translate(-340.000000, -10.000000)" fill="#50D2C2" fill-rule="nonzero" stroke="#50D2C2" stroke-width="0.2">
            <path d="M345.311111,14.8888889 C345.311111,12.7555556 347.066667,11 349.222222,11 C351.377778,11 353.133333,12.7555556 353.133333,14.8888889 C353.133333,17.0222222 351.377778,18.7777778 349.222222,18.7777778 C347.066667,18.7777778 345.311111,17.0222222 345.311111,14.8888889 Z M351.355556,14.8888889 C351.355556,13.7333333 350.4,12.7777778 349.222222,12.7777778 C348.044444,12.7777778 347.088889,13.7333333 347.088889,14.8888889 C347.088889,16.0444444 348.044444,17 349.222222,17 C350.4,17 351.355556,16.0444444 351.355556,14.8888889 Z M342.444444,29 C341.644444,29 341,28.3555556 341,27.5555556 L341,24.3555556 C341,24.1777778 341.266667,19.9555556 349.2,19.6444444 L349.244444,19.6444444 L349.288889,19.6444444 C357.2,19.9555556 357.466667,24.1777778 357.466667,24.3555556 L357.466667,24.4 L357.466667,27.5555556 C357.466667,28.3555556 356.822222,29 356.022222,29 L342.444444,29 Z M342.777778,24.4222222 L342.777778,27.2222222 L355.666667,27.2222222 L355.666667,24.4222222 C355.644444,24.2888889 355.2,21.6666667 349.222222,21.4222222 C345.933333,21.5555556 344.355556,22.4 343.6,23.0888889 C342.888889,23.7111111 342.8,24.3111111 342.777778,24.4222222 Z" id="Combined-Shape"></path>
        </g>
    </g>
</svg>