<?xml version="1.0" encoding="UTF-8"?>
<svg width="24px" height="16px" viewBox="0 0 24 16" version="1.1" xmlns="http://www.w3.org/2000/svg" xmlns:xlink="http://www.w3.org/1999/xlink">
    <!-- Generator: Sketch 52.6 (67491) - http://www.bohemiancoding.com/sketch -->
    <title>Combined Shape</title>
    <desc>Created with Sketch.</desc>
    <g id="Symbols" stroke="none" stroke-width="1" fill="none" fill-rule="evenodd">
        <g id="footer-richieste" transform="translate(-149.000000, -12.000000)" fill="#50D2C2">
            <path d="M171.4,18.4 C172.283656,18.4 173,19.1163444 173,20 C173,20.8836556 172.283656,21.6 171.4,21.6 L158.6,21.6 C157.716344,21.6 157,20.8836556 157,20 C157,19.1163444 157.716344,18.4 158.6,18.4 L171.4,18.4 Z M171.4,24.8 C172.283656,24.8 173,25.5163444 173,26.4 C173,27.2836556 172.283656,28 171.4,28 L158.6,28 C157.716344,28 157,27.2836556 157,26.4 C157,25.5163444 157.716344,24.8 158.6,24.8 L171.4,24.8 Z M171.4,12 C172.283656,12 173,12.7163444 173,13.6 C173,14.4836556 172.283656,15.2 171.4,15.2 L158.6,15.2 C157.716344,15.2 157,14.4836556 157,13.6 C157,12.7163444 157.716344,12 158.6,12 L171.4,12 Z M153.8,18.4 C154.683656,18.4 155.4,19.1163444 155.4,20 C155.4,20.8836556 154.683656,21.6 153.8,21.6 L150.6,21.6 C149.716344,21.6 149,20.8836556 149,20 C149,19.1163444 149.716344,18.4 150.6,18.4 L153.8,18.4 Z M153.8,24.8 C154.683656,24.8 155.4,25.5163444 155.4,26.4 C155.4,27.2836556 154.683656,28 153.8,28 L150.6,28 C149.716344,28 149,27.2836556 149,26.4 C149,25.5163444 149.716344,24.8 150.6,24.8 L153.8,24.8 Z M150.6,15.2 C149.716344,15.2 149,14.4836556 149,13.6 C149,12.7163444 149.716344,12 150.6,12 L153.8,12 C154.683656,12 155.4,12.7163444 155.4,13.6 C155.4,14.4836556 154.683656,15.2 153.8,15.2 L150.6,15.2 Z" id="Combined-Shape"></path>
        </g>
    </g>
</svg>