<?xml version="1.0" encoding="UTF-8"?>
<svg width="23px" height="16px" viewBox="0 0 23 16" version="1.1" xmlns="http://www.w3.org/2000/svg" xmlns:xlink="http://www.w3.org/1999/xlink">
    <!-- Generator: Sketch 52.6 (67491) - http://www.bohemiancoding.com/sketch -->
    <title>Path</title>
    <desc>Created with Sketch.</desc>
    <g id="Symbols" stroke="none" stroke-width="1" fill="none" fill-rule="evenodd">
        <g id="footer-prestazioni" transform="translate(-244.000000, -12.000000)" fill="#FFF">
            <path d="M253.845512,27.2078565 C254.197725,28.3001304 255.759951,28.2498596 256.041211,27.1372013 L258.581008,17.0898303 L260.065065,21.2946585 C260.226332,21.7515836 260.658213,22.0571456 261.142762,22.0571456 L265.257025,22.0571456 C265.888204,22.0571456 266.399875,21.5454739 266.399875,20.9142948 C266.399875,20.2831157 265.888204,19.771444 265.257025,19.771444 L261.951346,19.771444 L259.477617,12.7625457 C259.101063,11.6956425 257.569198,11.7659256 257.291921,12.862827 L254.800098,22.7204177 L252.630515,15.9921541 C252.30207,14.9735867 250.879172,14.9247797 250.481705,15.9184475 L248.940506,19.771444 L245.142851,19.771444 C244.511672,19.771444 244,20.2831157 244,20.9142948 C244,21.5454739 244.511672,22.0571456 245.142851,22.0571456 L249.714254,22.0571456 C250.181571,22.0571456 250.601807,21.7726318 250.775364,21.3387389 L251.427363,19.7087425 L253.845512,27.2078565 Z" id="Path"></path>
        </g>
    </g>
</svg>