<?xml version="1.0" encoding="UTF-8"?>
<svg width="20px" height="20px" viewBox="0 0 20 20" version="1.1" xmlns="http://www.w3.org/2000/svg" xmlns:xlink="http://www.w3.org/1999/xlink">
    <!-- Generator: Sketch 52.6 (67491) - http://www.bohemiancoding.com/sketch -->
    <title>Shape</title>
    <desc>Created with Sketch.</desc>
    <g id="Symbols" stroke="none" stroke-width="1" fill="none" fill-rule="evenodd">
        <g id="footer-prestazioni" transform="translate(-57.000000, -10.000000)" fill="#FFF" fill-rule="nonzero" stroke="#FFF" stroke-width="0.75">
            <path d="M75.7806599,27.7235104 L69.6247572,21.5554957 C70.4992588,20.4425091 71.0437243,19.0579799 71.0437243,17.5339841 C71.0437243,13.9309894 68.1187917,11 64.5218621,11 C60.9249326,11 58,13.9309894 58,17.5339841 C58,21.1369848 60.9249326,24.0695087 64.5218621,24.0695087 C66.0593217,24.0695087 67.4557887,23.5114967 68.5717962,22.6159782 L74.7246538,28.7809929 C74.8701554,28.9264956 75.0621524,29 75.2526509,29 C75.4431614,29 75.6351599,28.9264956 75.7806599,28.7809929 C76.0731134,28.4884858 76.0731134,28.0159784 75.7806599,27.7235104 M64.5218621,22.5739774 C61.7498921,22.5739774 59.4939595,20.3135052 59.4939595,17.5339841 C59.4939595,14.7575036 61.7498921,12.4969923 64.5218621,12.4969923 C67.2937872,12.4969923 69.5497527,14.7575051 69.5497527,17.5339841 C69.5497527,20.3135052 67.2937872,22.5739774 64.5218621,22.5739774" id="Shape"></path>
        </g>
    </g>
</svg>