<?xml version="1.0" encoding="UTF-8"?>
<svg width="24px" height="34px" viewBox="0 0 34 47" version="1.1" xmlns="http://www.w3.org/2000/svg" xmlns:xlink="http://www.w3.org/1999/xlink">
    <!-- Generator: Sketch 52.6 (67491) - http://www.bohemiancoding.com/sketch -->
    <title>Combined Shape Copy 2</title>
    <desc>Created with Sketch.</desc>
    <g id="-" stroke="none" stroke-width="1" fill="none" fill-rule="evenodd">
        <g id="Registration" transform="translate(-75.000000, -644.000000)" fill="#50D2C2" fill-rule="nonzero">
            <path d="M105.812645,664.185028 C107.56918,664.185028 109,665.615848 109,667.372383 L109,687.559737 C109,689.316272 107.56918,690.747092 105.812645,690.747092 L78.1873546,690.747092 C76.4308198,690.747092 75,689.316272 75,687.559737 L75,667.372383 C75,665.615848 76.4308198,664.185028 78.1873546,664.185028 L80.3138087,664.185028 L80.3138087,655.686191 C80.3138087,649.241686 85.5601478,644 92.0023265,644 C98.4445053,644 103.688518,649.241686 103.688518,655.686191 L103.688518,664.185028 L105.812645,664.185028 Z M82.4379362,655.686191 L82.4379362,664.185028 L101.562064,664.185028 L101.562064,655.686191 C101.562064,650.41426 97.271931,646.124128 92,646.124128 C86.728069,646.124128 82.4379362,650.41426 82.4379362,655.686191 Z M106.873546,687.559737 L106.875872,687.559737 L106.875872,667.372383 C106.875872,666.786096 106.398933,666.309156 105.812645,666.309156 L78.1873546,666.309156 C77.6010675,666.309156 77.1241275,666.786096 77.1241275,667.372383 L77.1241275,687.559737 C77.1241275,688.146024 77.6010675,688.622964 78.1873546,688.622964 L105.810319,688.622964 C106.396606,688.622964 106.873546,688.146024 106.873546,687.559737 Z M95.3013549,670.648146 C96.5786232,671.662515 97.3114821,673.179417 97.3114821,674.812645 C97.3114821,676.473792 96.5111537,678.041878 95.1873546,679.039962 L95.1873546,682.248255 C95.1873546,684.00479 93.7565348,685.43561 92,685.43561 C90.2434652,685.43561 88.8126454,684.00479 88.8126454,682.248255 L88.8126454,679.039962 C87.114274,677.76502 86.3302313,675.610647 86.8490489,673.491173 C87.3120296,671.595046 88.8382373,670.085124 90.7390174,669.643082 C92.3629396,669.263857 94.0240865,669.631449 95.3013549,670.648146 Z M93.5890242,677.550979 C94.5894348,676.969344 95.1873546,675.945669 95.1850281,674.807992 C95.1850281,673.828521 94.7453127,672.918845 93.9775558,672.309292 C93.1981661,671.69276 92.2210209,671.481046 91.2182838,671.711373 C90.1085261,671.969618 89.1802381,672.886273 88.9103599,673.993705 C88.5613795,675.422198 89.1476666,676.81812 90.4063227,677.550979 C90.7320378,677.741754 90.9344464,678.090735 90.9344464,678.46996 L90.9344464,682.245929 C90.9344464,682.832216 91.4113863,683.309156 91.9976735,683.309156 C92.5839606,683.309156 93.0609005,682.832216 93.0609005,682.245929 L93.0609005,678.46996 C93.0609005,678.090735 93.2633092,677.741754 93.5890242,677.550979 Z" id="Combined-Shape-Copy-2"></path>
        </g>
    </g>
</svg>