<?xml version="1.0" encoding="UTF-8"?>
<svg width="300px" height="200px" viewBox="0 0 248 125" version="1.1" xmlns="http://www.w3.org/2000/svg" xmlns:xlink="http://www.w3.org/1999/xlink">
    <!-- Generator: Sketch 52.6 (67491) - http://www.bohemiancoding.com/sketch -->
    <title>Group</title>
    <desc>Created with Sketch.</desc>
    <g id="-" stroke="none" stroke-width="1" fill="none" fill-rule="evenodd">
        <g id="Landing-Page" transform="translate(-64.000000, -196.000000)" fill="#FFFFFF">
            <g id="Group" transform="translate(64.000000, 196.000000)">
                <path d="M5.4103814,100.212329 L5.4103814,110.40411 L13.5259535,110.40411 C20.4528812,110.40411 20.4118935,100.212329 13.5259535,100.212329 L5.4103814,100.212329 Z M13.5259535,95.0342466 C27.5437599,95.0342466 27.5847476,115.376712 13.5259535,115.376712 L5.4103814,115.376712 L5.4103814,123.842466 L0,123.842466 L0,95.0753425 C4.50865117,95.0753425 9.01730234,95.0342466 13.5259535,95.0342466 Z M27.485206,95.0753425 L32.48571,95.0753425 L32.48571,106.335616 C34.2891705,103.993151 36.5025083,103.294521 38.7978216,103.294521 C44.5361049,103.294521 47.0773447,107.19863 47.0773447,113.157534 L47.0773447,123.842466 L42.0768407,123.842466 L42.0768407,113.19863 C42.0768407,109.5 40.150417,107.938356 37.486214,107.938356 C34.5350969,107.938356 32.48571,110.445205 32.48571,113.486301 L32.48571,123.842466 L27.485206,123.842466 L27.485206,95.0753425 Z M67.3077211,106.376712 L67.471672,103.582192 L72.2672374,103.582192 L72.2672374,123.842466 L67.5536475,123.842466 L67.3077211,120.883562 C66.1600644,123.267123 63.0040086,124.417808 60.749683,124.458904 C54.7654733,124.5 50.3387976,120.80137 50.3387976,113.691781 C50.3387976,106.705479 54.970412,103.047945 60.8726462,103.089041 C63.5778369,103.089041 66.1600644,104.363014 67.3077211,106.376712 Z M61.3235113,107.568493 C58.0035046,107.568493 55.3393016,109.828767 55.3393016,113.691781 C55.3393016,117.554795 58.0035046,119.856164 61.3235113,119.856164 C69.193157,119.856164 69.193157,107.568493 61.3235113,107.568493 Z M76.6353592,103.582192 L81.2669736,103.582192 L81.6358632,105.924658 C83.1933972,103.417808 85.2837719,103.047945 87.3331588,103.047945 C89.4235334,103.047945 91.4319326,103.869863 92.5386015,104.979452 L90.2842759,109.335616 C89.2595824,108.472603 88.3168645,108.020548 86.677355,108.020548 C84.0541397,108.020548 81.6358632,109.417808 81.6358632,113.157534 L81.6358632,123.842466 L76.6353592,123.842466 L76.6353592,103.582192 Z M113.014904,123.842466 L108.0144,123.842466 L108.0144,112.993151 C108.0144,110.321918 106.620817,107.89726 103.874639,107.89726 C101.169448,107.89726 99.5709263,110.321918 99.5709263,112.993151 L99.5709263,123.842466 L94.5704222,123.842466 L94.5704222,103.541096 L99.2020366,103.541096 L99.5709263,106.006849 C100.636607,103.952055 102.972908,103.212329 104.899332,103.212329 C107.317609,103.212329 109.735885,104.19863 110.883542,106.993151 C112.687002,104.116438 115.023303,103.294521 117.646519,103.294521 C123.384802,103.294521 126.212956,106.828767 126.212956,112.910959 L126.212956,123.842466 L121.212452,123.842466 L121.212452,112.910959 C121.212452,110.239726 120.105783,107.979452 117.400592,107.979452 C114.695402,107.979452 113.014904,110.321918 113.014904,112.993151 L113.014904,123.842466 Z M147.304075,106.376712 L147.468026,103.582192 L152.263591,103.582192 L152.263591,123.842466 L147.550001,123.842466 L147.304075,120.883562 C146.156418,123.267123 143.000362,124.417808 140.746037,124.458904 C134.761827,124.5 130.335151,120.80137 130.335151,113.691781 C130.335151,106.705479 134.966766,103.047945 140.869,103.089041 C143.574191,103.089041 146.156418,104.363014 147.304075,106.376712 Z M141.319865,107.568493 C137.999858,107.568493 135.335655,109.828767 135.335655,113.691781 C135.335655,117.554795 137.999858,119.856164 141.319865,119.856164 C149.189511,119.856164 149.189511,107.568493 141.319865,107.568493 Z M178.60114,116.486301 L182.290037,120.226027 C179.33892,123.143836 175.52706,124.5 171.387298,124.5 C160.730487,124.5 156.221835,117.143836 156.180848,109.664384 C156.13986,102.143836 161.017401,94.5 171.387298,94.5 C175.281134,94.5 178.97003,95.9794521 181.921147,98.8972603 L178.314226,102.390411 C176.42879,100.541096 173.887551,99.6780822 171.387298,99.6780822 C164.460371,99.6780822 161.468266,104.856164 161.509254,109.664384 C161.550241,114.431507 164.29642,119.40411 171.387298,119.40411 C173.887551,119.40411 176.715704,118.376712 178.60114,116.486301 Z M200.102137,106.376712 L200.266088,103.582192 L205.061653,103.582192 L205.061653,123.842466 L200.348063,123.842466 L200.102137,120.883562 C198.95448,123.267123 195.798424,124.417808 193.544099,124.458904 C187.559889,124.5 183.133213,120.80137 183.133213,113.691781 C183.133213,106.705479 187.764828,103.047945 193.667062,103.089041 C196.372252,103.089041 198.95448,104.363014 200.102137,106.376712 Z M194.117927,107.568493 C190.79792,107.568493 188.133717,109.828767 188.133717,113.691781 C188.133717,117.554795 190.79792,119.856164 194.117927,119.856164 C201.987573,119.856164 201.987573,107.568493 194.117927,107.568493 Z M209.429775,103.582192 L214.061389,103.582192 L214.430279,105.924658 C215.987813,103.417808 218.078187,103.047945 220.127574,103.047945 C222.217949,103.047945 224.226348,103.869863 225.333017,104.979452 L223.078691,109.335616 C222.053998,108.472603 221.11128,108.020548 219.47177,108.020548 C216.848555,108.020548 214.430279,109.417808 214.430279,113.157534 L214.430279,123.842466 L209.429775,123.842466 L209.429775,103.582192 Z M247.407842,115.5 L231.627563,115.5 C231.955464,118.006849 234.127815,119.815068 237.65276,119.815068 C239.497208,119.815068 241.915485,119.116438 243.063141,117.924658 L246.260185,121.089041 C244.128823,123.308219 240.644865,124.376712 237.570785,124.376712 C230.602869,124.376712 226.463108,120.061644 226.463108,113.568493 C226.463108,107.40411 230.643857,102.965753 237.201895,102.965753 C243.964872,102.965753 248.186609,107.157534 247.407842,115.5 Z M231.709538,111.349315 L242.612276,111.349315 C242.284374,108.719178 240.234987,107.40411 237.365846,107.40411 C234.660655,107.40411 232.447317,108.719178 231.709538,111.349315 Z" id="PharmaCare"></path>
                <path d="M123.499778,47.1275098 L123.499778,55.4395681 L99.9369185,55.4395681 C91.1492781,55.4395681 84,48.2883623 84,39.5 C84,30.7138531 91.1492781,23.5648626 99.9369185,23.5648626 L99.9369185,31.8769209 C95.7326096,31.8769209 92.3118652,35.2974481 92.3118652,39.5 C92.3118652,43.7069826 95.7326096,47.1275098 99.9369185,47.1275098 L123.499778,47.1275098 Z M115.874947,15.9395681 L115.874947,39.5 L107.562638,39.5 L107.562638,15.9395681 C107.562638,7.15120583 114.71236,0 123.5,0 C132.288084,0 139.438028,7.15120583 139.438028,15.9395681 L131.125497,15.9395681 C131.125497,11.7348009 127.704753,8.3142737 123.5,8.3142737 C119.295247,8.3142737 115.874947,11.7348009 115.874947,15.9395681 Z M131.125719,63.0648626 L131.125719,39.5022154 L139.438028,39.5022154 L139.438028,63.0648626 C139.438028,71.8510095 132.287862,79 123.499778,79 C114.712138,79 107.562638,71.8510095 107.562638,63.0648626 L115.875169,63.0648626 C115.875169,67.2674145 119.295469,70.6879417 123.499778,70.6879417 C127.704975,70.6879417 131.125719,67.2674145 131.125719,63.0648626 Z M123.5,23.5648626 L147.06286,23.5648626 C155.8505,23.5648626 163,30.7138531 163,39.5022154 C163,48.2905777 155.8505,55.4395681 147.06286,55.4395681 L147.06286,47.1275098 C151.267169,47.1275098 154.687913,43.7069826 154.687913,39.5022154 C154.687913,35.2974481 151.267169,31.8769209 147.06286,31.8769209 L123.5,31.8769209 L123.5,23.5648626 Z" id="Combined-Shape"></path>
            </g>
        </g>
    </g>
</svg>