<?xml version="1.0" encoding="UTF-8"?>
<svg width="15px" height="15px" viewBox="0 0 15 15" version="1.1" xmlns="http://www.w3.org/2000/svg" xmlns:xlink="http://www.w3.org/1999/xlink">
    <!-- Generator: Sketch 53 (72520) - https://sketchapp.com -->
    <title>Combined Shape</title>
    <desc>Created with Sketch.</desc>
    <g id="mockups" stroke="none" stroke-width="1" fill="none" fill-rule="evenodd">
        <!-- <g id="Le-mie-richieste" transform="translate(-69.000000, -266.000000)" fill="#378DD2"> -->
        <g id="Le-mie-richieste" transform="translate(-69.000000, -266.000000)" fill="#50D2C2">
            <path d="M78.0433037,281 L72.2884741,281 L72.2884741,280.224246 C71.5851517,279.622845 71.0643396,278.80426 70.8131824,277.870495 C69.7949886,277.745114 69,276.856826 69,275.770905 L69,272.370758 C69,271.768932 69.0826229,271.174332 69.242525,270.602257 C69.0875556,270.393148 69,270.137287 69,269.866551 C69,269.419856 69.2363591,269.010139 69.6165889,268.79763 L74.1978443,266.24752 C74.7910029,265.917281 75.5403639,265.917706 76.1335224,266.24752 L80.7143668,268.798055 C81.0954187,269.010139 81.3317778,269.419431 81.3317778,269.866551 C81.3317778,270.137287 81.2442222,270.393148 81.0892528,270.602257 C81.2491549,271.174332 81.3317778,271.768932 81.3317778,272.370758 L81.3317778,273.205494 C82.5855086,273.849397 83.3870741,275.154203 83.3870741,276.620941 C83.3870741,278.729882 81.7276279,280.446106 79.6875408,280.446106 C79.1630292,280.446106 78.6467387,280.324125 78.1719653,280.103541 C78.1288041,280.143493 78.0881092,280.185994 78.0433037,280.224246 L78.0433037,281 Z M82.5649556,276.620941 C82.5649556,275.630224 82.0930596,274.73556 81.3317778,274.187286 L81.3317778,275.770905 C81.3317778,276.856826 80.5367892,277.745114 79.5185954,277.870495 C79.3644482,278.44427 79.1071251,278.972142 78.7684123,279.434562 C79.0635528,279.537417 79.3734915,279.596069 79.6875408,279.596069 C81.2738185,279.596069 82.5649556,278.261512 82.5649556,276.620941 Z M70.644237,273.68874 L70.644237,273.220795 L71.4663556,273.220795 C72.7032329,273.220795 73.9294227,272.797902 74.9192533,272.030744 L75.1658889,271.839486 L75.4125245,272.030744 C76.4023552,272.797902 77.6285449,273.220795 78.8654222,273.220795 L79.6875408,273.220795 L79.6875408,273.689165 C79.9929578,273.753343 80.2696007,273.894024 80.5096593,274.081882 L80.5096593,272.370758 C80.5096593,271.983567 80.4697865,271.6002 80.3933295,271.226184 L78.9172157,272.447262 L78.6820898,272.326131 C78.6664696,272.318056 77.0929347,271.520722 75.1658889,271.520722 C73.2388431,271.520722 71.6653082,272.318056 71.649688,272.326556 L71.4149732,272.447262 L69.9384483,271.226184 C69.8619913,271.6002 69.8221185,271.983567 69.8221185,272.370758 L69.8221185,274.081457 C70.0621771,273.893599 70.33882,273.753343 70.644237,273.68874 Z M79.6875408,276.620941 C79.6875408,276.739946 79.6789085,276.856401 79.6702763,276.973281 C80.1565594,276.802424 80.5096593,276.330654 80.5096593,275.770905 C80.5096593,275.217531 80.1647806,274.750011 79.6875408,274.574053 L79.6875408,276.620941 Z M70.0066841,269.546512 C69.8932318,269.60984 69.8221185,269.73267 69.8221185,269.866551 C69.8221185,269.977905 69.8702125,270.081185 69.9540685,270.150463 L71.5263702,271.451019 C72.0743122,271.208758 73.480957,270.670685 75.1658889,270.670685 C76.8508208,270.670685 78.2574656,271.208758 78.8058187,271.451019 L80.3777093,270.150463 C80.4615654,270.081185 80.5096593,269.97748 80.5096593,269.866551 C80.5096593,269.73267 80.438546,269.60984 80.3246826,269.546512 L75.7442493,266.996402 C75.3895051,266.799194 74.9422727,266.798769 74.5875285,266.996402 L70.0066841,269.546512 Z M69.8221185,275.770905 C69.8221185,276.330654 70.1752184,276.802424 70.6615015,276.973281 C70.6528693,276.856401 70.644237,276.739946 70.644237,276.620941 L70.644237,274.574053 C70.1669972,274.750011 69.8221185,275.217531 69.8221185,275.770905 Z M71.4663556,276.620941 C71.4663556,278.729882 73.1258018,280.446106 75.1658889,280.446106 C77.205976,280.446106 78.8654222,278.729882 78.8654222,276.620941 L78.8654222,274.070831 C77.55291,274.070831 76.2510854,273.654314 75.1658889,272.892681 C74.0806925,273.654314 72.7788678,274.070831 71.4663556,274.070831 L71.4663556,276.620941 Z M73.2892027,276.154425 C72.9960165,276.154425 72.7583421,275.90868 72.7583421,275.605538 C72.7583421,275.302395 72.9960165,275.05665 73.2892027,275.05665 C73.5823889,275.05665 73.8200632,275.302395 73.8200632,275.605538 C73.8200632,275.90868 73.5823889,276.154425 73.2892027,276.154425 Z M77.0052266,276.154425 C76.7120404,276.154425 76.474366,275.90868 76.474366,275.605538 C76.474366,275.302395 76.7120404,275.05665 77.0052266,275.05665 C77.2984128,275.05665 77.5360871,275.302395 77.5360871,275.605538 C77.5360871,275.90868 77.2984128,276.154425 77.0052266,276.154425 Z M75.1658889,279.171051 C74.2590922,279.171051 73.5216519,278.408568 73.5216519,277.470978 L74.3437704,277.470978 C74.3437704,277.939773 74.7124905,278.321014 75.1658889,278.321014 C75.6192873,278.321014 75.9880074,277.939773 75.9880074,277.470978 L76.8101259,277.470978 C76.8101259,278.408568 76.0726856,279.171051 75.1658889,279.171051 Z M74.7548296,270.245667 L74.7548296,269.39563 L73.9327111,269.39563 L73.9327111,268.545594 L74.7548296,268.545594 L74.7548296,267.695557 L75.5769482,267.695557 L75.5769482,268.545594 L76.3990667,268.545594 L76.3990667,269.39563 L75.5769482,269.39563 L75.5769482,270.245667 L74.7548296,270.245667 Z" id="Combined-Shape"></path>
        </g>
    </g>
</svg>