<?xml version="1.0" encoding="UTF-8"?>
<svg width="24px" height="34px" viewBox="0 0 34 60" version="1.1" xmlns="http://www.w3.org/2000/svg"
     xmlns:xlink="http://www.w3.org/1999/xlink">
    <!-- Generator: Sketch 52.6 (67491) - http://www.bohemiancoding.com/sketch -->
    <title>Combined Shape</title>
    <desc>Created with Sketch.</desc>
    <g id="-" stroke="none" stroke-width="1" fill="none" fill-rule="evenodd">
        <g id="Already-registered" transform="translate(-75.000000, -636.000000)" fill="#50D2C2" fill-rule="nonzero">
            <path
                d="M104.595,636 C107.023,636 109,637.977 109,640.405 L109,691.595 C109,694.023 107.023,696 104.594,696 L79.405,696 C76.977,696 75,694.023 75,691.594 L75,640.405 C75,637.977 76.977,636 79.405,636 L104.595,636 Z M77,644 L77,682 L107,682 L107,644 L77,644 Z M79.405,638 C78.079,638 77,639.079 77,640.405 L77,642 L107,642 L107,640.405 C107,639.079 105.921,638 104.594,638 L79.405,638 Z M104.595,694 C105.921,694 107,692.921 107,691.595 L107,684 L77,684 L77,691.595 C77,692.921 78.079,694 79.405,694 L104.595,694 Z M92,685 C94.206,685 96,686.794 96,689 C96,691.206 94.206,693 92,693 C89.794,693 88,691.206 88,689 C88,686.794 89.794,685 92,685 Z M92,691 C93.103,691 94,690.103 94,689 C94,687.897 93.103,687 92,687 C90.897,687 90,687.897 90,689 C90,690.103 90.897,691 92,691 Z M88,641 C87.447,641 87,640.553 87,640 C87,639.447 87.447,639 88,639 L92,639 C92.553,639 93,639.447 93,640 C93,640.553 92.553,641 92,641 L88,641 Z M95,641 C94.447,641 94,640.553 94,640 C94,639.447 94.447,639 95,639 L96,639 C96.553,639 97,639.447 97,640 C97,640.553 96.553,641 96,641 L95,641 Z"
                id="Combined-Shape"></path>
        </g>
    </g>
</svg>