<?xml version="1.0" encoding="UTF-8"?>
<svg width="24px" height="16px" viewBox="0 0 24 16" version="1.1" xmlns="http://www.w3.org/2000/svg" xmlns:xlink="http://www.w3.org/1999/xlink">
    <!-- Generator: Sketch 53 (72520) - https://sketchapp.com -->
    <title>Combined Shape</title>
    <desc>Created with Sketch.</desc>
    <g id="mockups" stroke="none" stroke-width="1" fill="none" fill-rule="evenodd">
        <g id="Profilo" transform="translate(-20.000000, -437.000000)" fill="#50D2C2" fill-rule="nonzero">
            <path d="M41.9157895,453 L22.0842105,453 C20.9473684,453 20,452.076923 20,450.969231 L20,439.030769 C20,437.923077 20.9473684,437 22.0842105,437 L41.9157895,437 C43.0526316,437 44,437.923077 44,439.030769 L44,450.969231 C44,452.076923 43.0526316,453 41.9157895,453 Z M22.0842105,438.230769 C21.6421053,438.230769 21.2631579,438.6 21.2631579,439.030769 L21.2631579,450.969231 C21.2631579,451.4 21.6421053,451.769231 22.0842105,451.769231 L41.9157895,451.769231 C42.3578947,451.769231 42.7368421,451.4 42.7368421,450.969231 L42.7368421,439.030769 C42.7368421,438.6 42.3578947,438.230769 41.9157895,438.230769 L22.0842105,438.230769 Z M39.8947368,447.153846 L23.7894737,447.153846 C23.4421053,447.153846 23.1578947,446.876923 23.1578947,446.538462 C23.1578947,446.2 23.4421053,445.923077 23.7894737,445.923077 L39.8947368,445.923077 C40.2421053,445.923077 40.5263158,446.2 40.5263158,446.538462 C40.5263158,446.876923 40.2421053,447.153846 39.8947368,447.153846 Z M29.4736842,449.923077 L23.7894737,449.923077 C23.4421053,449.923077 23.1578947,449.646154 23.1578947,449.307692 C23.1578947,448.969231 23.4421053,448.692308 23.7894737,448.692308 L29.4736842,448.692308 C29.8210526,448.692308 30.1052632,448.969231 30.1052632,449.307692 C30.1052632,449.646154 29.8210526,449.923077 29.4736842,449.923077 Z M34.8421053,449.923077 L32,449.923077 C31.6526316,449.923077 31.3684211,449.646154 31.3684211,449.307692 C31.3684211,448.969231 31.6526316,448.692308 32,448.692308 L34.8421053,448.692308 C35.1894737,448.692308 35.4736842,448.969231 35.4736842,449.307692 C35.4736842,449.646154 35.1894737,449.923077 34.8421053,449.923077 Z M26.9473684,444.384615 L23.7894737,444.384615 C23.4421053,444.384615 23.1578947,444.107692 23.1578947,443.769231 L23.1578947,440.692308 C23.1578947,440.353846 23.4421053,440.076923 23.7894737,440.076923 L26.9473684,440.076923 C27.2947368,440.076923 27.5789474,440.353846 27.5789474,440.692308 L27.5789474,443.769231 C27.5789474,444.107692 27.2947368,444.384615 26.9473684,444.384615 Z M24.4210526,443.153846 L26.3157895,443.153846 L26.3157895,441.307692 L24.4210526,441.307692 L24.4210526,443.153846 Z M39.8947368,441.307692 L36.7368421,441.307692 C36.3894737,441.307692 36.1052632,441.030769 36.1052632,440.692308 C36.1052632,440.353846 36.3894737,440.076923 36.7368421,440.076923 L39.8947368,440.076923 C40.2421053,440.076923 40.5263158,440.353846 40.5263158,440.692308 C40.5263158,441.030769 40.2421053,441.307692 39.8947368,441.307692 Z" id="Combined-Shape"></path>
        </g>
    </g>
</svg>