<?xml version="1.0" encoding="UTF-8"?>
<svg width="16px" height="20px" viewBox="0 0 16 20" version="1.1" xmlns="http://www.w3.org/2000/svg" xmlns:xlink="http://www.w3.org/1999/xlink">
    <!-- Generator: Sketch 53 (72520) - https://sketchapp.com -->
    <title>Icon</title>
    <desc>Created with Sketch.</desc>
    <defs>
        <path d="M17.988024,20.1257143 L17.988024,10.5714286 L6.01197605,10.5714286 L6.01197605,20.1257143 L17.988024,20.1257143 Z M8.91017964,6.77714286 L8.91017964,8.69714286 L15.0898204,8.69714286 L15.0898204,6.77714286 C15.0898204,6.25904503 14.9501012,5.77143086 14.6706587,5.31428571 C14.3912162,4.85714057 14.0119784,4.49523943 13.5329341,4.22857143 C13.0538898,3.96190343 12.5429169,3.82857143 12,3.82857143 C11.4570831,3.82857143 10.9461102,3.96190343 10.4670659,4.22857143 C9.98802156,4.49523943 9.60878383,4.85714057 9.32934132,5.31428571 C9.0498988,5.77143086 8.91017964,6.25904503 8.91017964,6.77714286 Z M17.988024,8.69714286 C18.5309408,8.69714286 19.001994,8.87999817 19.4011976,9.24571429 C19.8004012,9.6114304 20,10.0533307 20,10.5714286 L20,20.1257143 C20,20.6438121 19.8004012,21.0857125 19.4011976,21.4514286 C19.001994,21.8171447 18.5309408,22 17.988024,22 L6.01197605,22 C5.46905916,22 4.99800599,21.8171447 4.5988024,21.4514286 C4.1995988,21.0857125 4,20.6438121 4,20.1257143 L4,10.5714286 C4,10.0533307 4.1995988,9.6114304 4.5988024,9.24571429 C4.99800599,8.87999817 5.46905916,8.69714286 6.01197605,8.69714286 L6.99401198,8.69714286 L6.99401198,6.77714286 C6.99401198,5.90856709 7.21756263,5.10857509 7.66467066,4.37714286 C8.11177868,3.64571063 8.71855904,3.0666688 9.48502994,2.64 C10.2515008,2.2133312 11.0898158,2 12,2 C12.9101842,2 13.7484992,2.2133312 14.5149701,2.64 C15.281441,3.0666688 15.8882213,3.64571063 16.3353293,4.37714286 C16.7824374,5.10857509 17.005988,5.90856709 17.005988,6.77714286 L17.005988,8.69714286 L17.988024,8.69714286 Z M12,17.2685714 C11.4570831,17.2685714 10.9860299,17.0780971 10.5868263,16.6971429 C10.1876228,16.3161886 9.98802395,15.8666693 9.98802395,15.3485714 C9.98802395,14.8304736 10.1876228,14.3809543 10.5868263,14 C10.9860299,13.6190457 11.4570831,13.4285714 12,13.4285714 C12.5429169,13.4285714 13.0139701,13.6190457 13.4131737,14 C13.8123772,14.3809543 14.011976,14.8304736 14.011976,15.3485714 C14.011976,15.8666693 13.8123772,16.3161886 13.4131737,16.6971429 C13.0139701,17.0780971 12.5429169,17.2685714 12,17.2685714 Z" id="path-1"></path>
    </defs>
    <g id="mockups" stroke="none" stroke-width="1" fill="none" fill-rule="evenodd">
        <g id="Profilo" transform="translate(-87.000000, -711.000000)">
            <g id="Button-/-Large-/-Basic--" transform="translate(64.000000, 702.000000)">
                <g id="Icon-/-Lock-/-Border" transform="translate(19.000000, 7.000000)">
                    <mask id="mask-2" fill="white">
                        <use xlink:href="#path-1"></use>
                    </mask>
                    <use id="↳Color" fill="#FFFFFF" fill-rule="evenodd" xlink:href="#path-1"></use>
                </g>
            </g>
        </g>
    </g>
</svg>