<?xml version="1.0" encoding="UTF-8"?>
<svg width="20px" height="35px" viewBox="0 0 20 35" version="1.1" xmlns="http://www.w3.org/2000/svg" xmlns:xlink="http://www.w3.org/1999/xlink">
    <!-- Generator: Sketch 53 (72520) - https://sketchapp.com -->
    <title>Combined Shape</title>
    <desc>Created with Sketch.</desc>
    <g id="mockups" stroke="none" stroke-width="1" fill="none" fill-rule="evenodd">
        <g id="Profilo" transform="translate(-22.000000, -307.000000)" fill="#50D2C2" fill-rule="nonzero">
            <path d="M39.4088235,307 C40.8370588,307 42,308.15325 42,309.569583 L42,339.430417 C42,340.84675 40.8370588,342 39.4082353,342 L24.5911765,342 C23.1629412,342 22,340.84675 22,339.429833 L22,309.569583 C22,308.15325 23.1629412,307 24.5911765,307 L39.4088235,307 Z M23.1764706,311.666667 L23.1764706,333.833333 L40.8235294,333.833333 L40.8235294,311.666667 L23.1764706,311.666667 Z M24.5911765,308.166667 C23.8111765,308.166667 23.1764706,308.796083 23.1764706,309.569583 L23.1764706,310.5 L40.8235294,310.5 L40.8235294,309.569583 C40.8235294,308.796083 40.1888235,308.166667 39.4082353,308.166667 L24.5911765,308.166667 Z M39.4088235,340.833333 C40.1888235,340.833333 40.8235294,340.203917 40.8235294,339.430417 L40.8235294,335 L23.1764706,335 L23.1764706,339.430417 C23.1764706,340.203917 23.8111765,340.833333 24.5911765,340.833333 L39.4088235,340.833333 Z M32,335.583333 C33.2976471,335.583333 34.3529412,336.629833 34.3529412,337.916667 C34.3529412,339.2035 33.2976471,340.25 32,340.25 C30.7023529,340.25 29.6470588,339.2035 29.6470588,337.916667 C29.6470588,336.629833 30.7023529,335.583333 32,335.583333 Z M32,339.083333 C32.6488235,339.083333 33.1764706,338.560083 33.1764706,337.916667 C33.1764706,337.27325 32.6488235,336.75 32,336.75 C31.3511765,336.75 30.8235294,337.27325 30.8235294,337.916667 C30.8235294,338.560083 31.3511765,339.083333 32,339.083333 Z M29.6470588,309.916667 C29.3217647,309.916667 29.0588235,309.655917 29.0588235,309.333333 C29.0588235,309.01075 29.3217647,308.75 29.6470588,308.75 L32,308.75 C32.3252941,308.75 32.5882353,309.01075 32.5882353,309.333333 C32.5882353,309.655917 32.3252941,309.916667 32,309.916667 L29.6470588,309.916667 Z M33.7647059,309.916667 C33.4394118,309.916667 33.1764706,309.655917 33.1764706,309.333333 C33.1764706,309.01075 33.4394118,308.75 33.7647059,308.75 L34.3529412,308.75 C34.6782353,308.75 34.9411765,309.01075 34.9411765,309.333333 C34.9411765,309.655917 34.6782353,309.916667 34.3529412,309.916667 L33.7647059,309.916667 Z" id="Combined-Shape"></path>
        </g>
    </g>
</svg>