<?xml version="1.0" encoding="UTF-8"?>
<svg width="20px" height="27px" viewBox="0 0 20 27" version="1.1" xmlns="http://www.w3.org/2000/svg" xmlns:xlink="http://www.w3.org/1999/xlink">
    <!-- Generator: Sketch 53 (72520) - https://sketchapp.com -->
    <title>Combined Shape</title>
    <desc>Created with Sketch.</desc>
    <g id="mockups" stroke="none" stroke-width="1" fill="none" fill-rule="evenodd">
        <g id="Profilo" transform="translate(-22.000000, -371.000000)" fill="#50D2C2" fill-rule="nonzero">
            <path d="M31.9999471,375.094507 C35.2516272,375.094507 37.8971729,377.734514 37.8971729,380.979516 C37.8971729,384.224518 35.2516272,386.864525 31.9999471,386.864525 C28.7482671,386.864525 26.1027214,384.224518 26.1027214,380.979516 C26.1027214,377.734514 28.7482671,375.094507 31.9999471,375.094507 Z M31.9999471,385.281491 C34.3771103,385.281491 36.3109875,383.351691 36.3109875,380.979516 C36.3109875,378.60734 34.3770045,376.677434 31.9999471,376.677434 C29.6228897,376.677434 27.6889067,378.607235 27.6889067,380.97941 C27.6889067,383.351586 29.6228897,385.281491 31.9999471,385.281491 Z M31.9999471,371 C37.5140562,371 42,375.476731 42,380.979305 C42,384.139462 39.3150111,388.875898 37.7144443,391.417869 C36.6695711,393.077411 35.5450715,394.664243 34.5479953,395.886158 C32.9560997,397.836747 32.4164794,398 32.0000529,398 C31.5897596,398 31.0182041,397.836853 29.4213384,395.887319 C28.426483,394.672686 27.302512,393.084904 26.2565813,391.416603 C24.6669064,388.880858 22,384.152864 22,380.97941 C22,375.476731 26.4859438,371 31.9999471,371 Z M36.6147949,390.185402 C39.0290748,386.27462 40.4138146,382.919236 40.4137089,380.97941 C40.4137089,376.349557 36.6393279,372.582928 31.9999471,372.582928 C27.3605664,372.582928 23.5861854,376.349557 23.5862911,380.97941 C23.5862911,382.930422 24.9634173,386.289711 27.3645847,390.195849 C29.4442852,393.578777 31.2967383,395.770393 31.9905358,396.325896 C32.6807379,395.75277 34.5637514,393.507756 36.6147949,390.185402 Z" id="Combined-Shape"></path>
        </g>
    </g>
</svg>