<?xml version="1.0" encoding="UTF-8"?>
<svg width="20px" height="22px" viewBox="0 0 20 22" version="1.1" xmlns="http://www.w3.org/2000/svg" xmlns:xlink="http://www.w3.org/1999/xlink">
    <!-- Generator: Sketch 53 (72520) - https://sketchapp.com -->
    <title>Combined Shape</title>
    <desc>Created with Sketch.</desc>
    <g id="mockups" stroke="none" stroke-width="1" fill="none" fill-rule="evenodd">
        <g id="Profilo" transform="translate(-22.000000, -259.000000)" fill="#50D2C2">
            <path d="M36.8042219,263.703273 C36.8042219,266.296609 34.6489978,268.406546 32,268.406546 C29.3510022,268.406546 27.1957781,266.296609 27.1957781,263.703273 C27.1957781,261.109937 29.3510022,259 32,259 C34.6489979,259 36.8042219,261.109937 36.8042219,263.703273 Z M28.5595658,263.703273 C28.5595658,265.560591 30.1028168,267.071415 32,267.071415 C33.8971833,267.071415 35.4404342,265.560592 35.4404342,263.703273 C35.4404342,261.845954 33.8971833,260.335131 32,260.335131 C30.1028168,260.335131 28.5595658,261.845954 28.5595658,263.703273 Z M22,275.495844 C22,271.789682 25.0798429,268.774554 28.8655525,268.774554 C29.0613305,268.774554 29.2910702,268.857022 29.4205901,269.00077 C30.0755145,269.728638 31.0157821,270.146193 32,270.146193 C32.9842179,270.146193 33.9244856,269.728639 34.5794099,269.00077 C34.7089298,268.857022 34.8953852,268.774554 35.0911633,268.774554 L35.1344476,268.774554 C38.9201571,268.774554 42,271.789682 42,275.495844 L42,280.332434 C42,280.701095 41.6946794,281 41.3181061,281 L22.6818939,281 C22.3053206,281 22,280.701095 22,280.332434 L22,275.495844 Z M28.6218286,270.116857 C25.6798295,270.261257 23.3637877,272.618597 23.3637877,275.495844 L23.3637877,279.664869 L40.6362124,279.664869 L40.6362124,275.495844 C40.6362124,272.606537 38.3001931,270.241047 35.3798362,270.114901 C34.4818539,270.986843 33.2672305,271.481324 32,271.481324 C30.7334355,271.481324 29.5198109,270.987495 28.6218286,270.116857 Z" id="Combined-Shape"></path>
        </g>
    </g>
</svg>