<?xml version="1.0" encoding="UTF-8"?>
<svg width="18px" height="20px" viewBox="0 0 18 20" version="1.1" xmlns="http://www.w3.org/2000/svg" xmlns:xlink="http://www.w3.org/1999/xlink">
    <!-- Generator: Sketch 53 (72520) - https://sketchapp.com -->
    <title>↳Color</title>
    <desc>Created with Sketch.</desc>
    <defs>
        <path d="M2,17.6404494 C2,18.9382022 3.13258427,20 4.51685393,20 L13.4831461,20 C14.8674157,20 16,18.9382022 16,17.6404494 L16,5.19855128 C16,5.08889443 15.9105988,5 15.8020916,5 L2.1979084,5 C2.08860661,5 2,5.08071942 2,5.19855128 L2,17.6404494 Z M17.5,1.70410939 C17.5,1.42380931 17.2722374,1.1965812 16.9946395,1.1965812 L12.7777778,1.1965812 L12.0399306,0.378605769 C11.8513155,0.169507577 11.4665179,0 11.2003658,0 L6.79963418,0 C6.52457048,0 6.15150621,0.166379488 5.96006944,0.378605769 L5.22222222,1.1965812 L1.0053605,1.1965812 C0.726257602,1.1965812 0.5,1.41743456 0.5,1.70410939 L0.5,3.0822154 C0.5,3.36251548 0.714942813,3.58974359 0.99044323,3.58974359 L17.0095568,3.58974359 C17.2804211,3.58974359 17.5,3.36889022 17.5,3.0822154 L17.5,1.70410939 Z" id="path-1"></path>
    </defs>
    <g id="mockups" stroke="none" stroke-width="1" fill="none" fill-rule="evenodd">
        <g id="Profilo" transform="translate(-97.000000, -774.000000)">
            <g id="Button-/-Large-/-Basic---Copy-2" transform="translate(75.000000, 765.000000)">
                <g id="Icon" transform="translate(22.000000, 9.000000)">
                    <mask id="mask-2" fill="white">
                        <use xlink:href="#path-1"></use>
                    </mask>
                    <use id="↳Color" fill="#FFFFFF" xlink:href="#path-1"></use>
                </g>
            </g>
        </g>
    </g>
</svg>