<?xml version="1.0" encoding="UTF-8"?>
<svg width="18px" height="18px" viewBox="0 0 18 18" version="1.1" xmlns="http://www.w3.org/2000/svg" xmlns:xlink="http://www.w3.org/1999/xlink">
    <!-- Generator: Sketch 52.6 (67491) - http://www.bohemiancoding.com/sketch -->
    <title>Shape</title>
    <desc>Created with Sketch.</desc>
    <g id="mockups" stroke="none" stroke-width="1" fill="none" fill-rule="evenodd">
        <g id="HP-Trova" transform="translate(-41.000000, -375.000000)" fill="#50D2C2" fill-rule="nonzero">
            <g id="Group" transform="translate(22.000000, 162.000000)">
                <path d="M36.7806599,229.72351 L30.6247572,223.555496 C31.4992588,222.442509 32.0437243,221.05798 32.0437243,219.533984 C32.0437243,215.930989 29.1187917,213 25.5218621,213 C21.9249326,213 19,215.930989 19,219.533984 C19,223.136985 21.9249326,226.069509 25.5218621,226.069509 C27.0593217,226.069509 28.4557887,225.511497 29.5717962,224.615978 L35.7246538,230.780993 C35.8701554,230.926496 36.0621524,231 36.2526509,231 C36.4431614,231 36.6351599,230.926496 36.7806599,230.780993 C37.0731134,230.488486 37.0731134,230.015978 36.7806599,229.72351 M25.5218621,224.573977 C22.7498921,224.573977 20.4939595,222.313505 20.4939595,219.533984 C20.4939595,216.757504 22.7498921,214.496992 25.5218621,214.496992 C28.2937872,214.496992 30.5497527,216.757505 30.5497527,219.533984 C30.5497527,222.313505 28.2937872,224.573977 25.5218621,224.573977" id="Shape"></path>
            </g>
        </g>
    </g>
</svg>