<?xml version="1.0" encoding="UTF-8"?>
<svg width="36px" height="18px" viewBox="0 0 36 18" version="1.1" xmlns="http://www.w3.org/2000/svg" xmlns:xlink="http://www.w3.org/1999/xlink">
    <!-- Generator: Sketch 52.6 (67491) - http://www.bohemiancoding.com/sketch -->
    <title>Combined Shape</title>
    <desc>Created with Sketch.</desc>
    <g id="mockups" stroke="none" stroke-width="1" fill="none" fill-rule="evenodd">
        <g id="Elenco-prestazioni" transform="translate(-293.000000, -21.000000)" fill="#50D2C2">
            <path d="M327.555386,21 C328.353876,21 329,21.644063 329,22.44 C329,23.235937 328.353873,23.88 327.555386,23.88 L308.738731,23.88 C307.940244,23.88 307.294118,23.235937 307.294118,22.44 C307.294118,21.644063 307.940244,21 308.738731,21 L327.555386,21 Z M323.228756,28.92 C324.019203,28.92 324.658824,29.564063 324.658824,30.36 C324.658824,31.155937 324.019203,31.8 323.228756,31.8 L308.724185,31.8 C307.933738,31.8 307.294118,31.155937 307.294118,30.36 C307.294118,29.564063 307.933738,28.92 308.724185,28.92 L323.228756,28.92 Z M320.24305,36.12 C321.084121,36.12 321.764706,36.764063 321.764706,37.56 C321.764706,38.355937 321.084121,39 320.24305,39 L308.815773,39 C307.974702,39 307.294118,38.355937 307.294118,37.56 C307.294118,36.764063 307.974702,36.12 308.815773,36.12 L320.24305,36.12 Z M304.137292,32.5191699 C304.722863,33.0730885 304.722863,33.9704336 304.137298,34.5243493 L299.845171,38.5845632 C299.564103,38.8504434 299.183491,39 298.785311,39 C298.38713,39 298.006518,38.8504434 297.72545,38.5845632 L293.439167,34.5243493 C292.853611,33.9704336 292.853611,33.0730856 293.439167,32.5191699 C294.024723,31.9652541 294.973329,31.9652541 295.558885,32.5191699 L297.289209,34.1589377 L297.289209,22.4180279 C297.289209,21.6342357 297.959673,21 298.788237,21 C299.6168,21 300.287264,21.6342357 300.287264,22.4180279 L300.287264,34.1559939 L302.017586,32.5191699 C302.603142,31.9652541 303.551744,31.9652541 304.137292,32.5191699 Z" id="Combined-Shape"></path>
        </g>
    </g>
</svg>