<?xml version="1.0" encoding="UTF-8"?>
<svg width="24px" height="34px" viewBox="0 0 34 39" version="1.1" xmlns="http://www.w3.org/2000/svg" xmlns:xlink="http://www.w3.org/1999/xlink">
    <!-- Generator: Sketch 52.6 (67491) - http://www.bohemiancoding.com/sketch -->
    <title>Combined Shape</title>
    <desc>Created with Sketch.</desc>
    <g id="-" stroke="none" stroke-width="1" fill="none" fill-rule="evenodd">
        <g id="Registration" transform="translate(-75.000000, -546.000000)" fill="#FFFFFF">
            <path d="M100.167177,554.167177 C100.167177,558.670473 96.5032963,562.334354 92.0000001,562.334354 C87.4967038,562.334354 83.8328228,558.670474 83.8328228,554.167177 C83.8328228,549.663881 87.4967037,546 92.0000001,546 C96.5032964,546 100.167177,549.663881 100.167177,554.167177 Z M86.1512619,554.167177 C86.1512619,557.392389 88.7747886,560.015915 92.0000001,560.015915 C95.2252115,560.015915 97.8487382,557.392389 97.8487382,554.167177 C97.8487382,550.941966 95.2252115,548.318439 92.0000001,548.318439 C88.7747886,548.318439 86.1512619,550.941966 86.1512619,554.167177 Z M75,574.644836 C75,568.20913 80.2357329,562.973397 86.6714392,562.973397 C87.0042619,562.973397 87.3948193,563.116601 87.6150031,563.366218 C88.7283746,564.630152 90.3268296,565.355231 92.0000001,565.355231 C93.6731705,565.355231 95.2716255,564.630153 96.3849969,563.366218 C96.6051807,563.116601 96.9221548,562.973397 97.2549776,562.973397 L97.3285609,562.973397 C103.764267,562.973397 109,568.20913 109,574.644836 L109,583.043517 C109,583.683692 108.480955,584.202737 107.84078,584.202737 L76.1592196,584.202737 C75.5190451,584.202737 75,583.683692 75,583.043517 L75,574.644836 Z M86.2571086,565.304288 C81.2557102,565.555038 77.3184391,569.648532 77.3184391,574.644836 L77.3184391,581.884298 L106.681561,581.884298 L106.681561,574.644836 C106.681561,569.627589 102.710328,565.519944 97.7457216,565.300892 C96.2191516,566.81501 94.1542918,567.67367 92.0000001,567.67367 C89.8468403,567.67367 87.7836786,566.816142 86.2571086,565.304288 Z" id="Combined-Shape"></path>
        </g>
    </g>
</svg>